# xmcd
#
# Track frame offsets:
# 150
# 18597
# 32847
# 57940
# 87650
# 99165
# 113837
# 119225
# 123762
# 130760
# 144200
# 149830
#
# Disc length: 2083 seconds
#
# Revision: 1
# Processed by: cddbd v1.5.2PL0 Copyright (c) Steve Scherf et al.
# Submitted via: Easy CD Ripper 2.3.10
#
DISCID=ad08210c
DTITLE=Chicago - Chicago II
DYEAR=1970
DGENRE=Blues
TTITLE0=Movin' In - Chicago
TTITLE1=The Road - Chicago
TTITLE2=Poem For The People - Chicago
TTITLE3=In The Country - Chicago
TTITLE4=Wake Up Sunshine - Chicago
TTITLE5=Make Me Smile - Chicago
TTITLE6=So Much To Say, So Much To Give - Chicago
TTITLE7=Anxiety's Moment - Chicago
TTITLE8=West Virginia Fantasies - Chicago
TTITLE9=Colour My World - Chicago
TTITLE10=To Be Free - Chicago
TTITLE11=Now More Than Ever - Chicago
EXTD=
EXTT0=
EXTT1=
EXTT2=
EXTT3=
EXTT4=
EXTT5=
EXTT6=
EXTT7=
EXTT8=
EXTT9=
EXTT10=
EXTT11=
PLAYORDER=
